<svg width="155" height="29" viewBox="0 0 155 29" fill="none" xmlns="http://www.w3.org/2000/svg">
<path d="M0.18335 28.5455L6.16753 0.435083H15.6584C17.9326 0.435083 19.6224 0.943293 20.7278 1.95971C21.8331 2.96343 22.3858 4.30383 22.3858 5.98093C22.3858 6.98465 22.227 8.00107 21.9094 9.03019C21.5917 10.0593 21.1407 11.0122 20.5562 11.8889C19.9718 12.7655 19.273 13.4897 18.4599 14.0615C17.6594 14.6332 16.7764 14.9699 15.8108 15.0715C16.3953 15.1224 16.9352 15.2685 17.4307 15.5099C17.939 15.7386 18.3455 16.1007 18.6505 16.5962C18.9681 17.079 19.1269 17.7206 19.1269 18.521C19.1269 18.8641 19.0697 19.3405 18.9554 19.9504C18.841 20.5602 18.7013 21.24 18.5361 21.9896C18.3709 22.7265 18.2058 23.4697 18.0406 24.2193C17.8754 24.9562 17.7357 25.636 17.6213 26.2585C17.507 26.8811 17.4498 27.3702 17.4498 27.726C17.4498 27.9166 17.4562 28.0881 17.4689 28.2406C17.4943 28.3803 17.526 28.482 17.5642 28.5455H14.2862C14.2227 28.3803 14.1909 28.1262 14.1909 27.7832C14.1909 27.4528 14.2417 27.0018 14.3434 26.4301C14.4577 25.8456 14.5911 25.2167 14.7436 24.5433C14.9088 23.8572 15.0676 23.1775 15.22 22.5041C15.3725 21.818 15.4995 21.1891 15.6012 20.6174C15.7155 20.0457 15.7727 19.601 15.7727 19.2833C15.7727 18.3177 15.4297 17.619 14.7436 17.187C14.0575 16.755 13.111 16.539 11.904 16.539H4.49043L6.16753 15.4146L3.36602 28.5455H0.18335ZM6.30093 14.7666L5.02406 13.6803H12.5329C13.7272 13.6803 14.8071 13.3754 15.7727 12.7655C16.7383 12.1557 17.507 11.3489 18.0787 10.3452C18.6505 9.34147 18.9363 8.24247 18.9363 7.04817C18.9363 5.87929 18.5996 4.96451 17.9263 4.30383C17.2529 3.63046 16.1602 3.29377 14.6483 3.29377H7.34912L9.1215 1.46421L6.30093 14.7666Z" fill="#41197F"/>
<path d="M32.4951 3.29377L34.3437 1.44515L31.6566 14.1377L31.0848 13.0133H41.8716L41.2808 15.872H30.494L31.5232 14.7476L28.8169 27.5354L27.7306 25.6868H41.2999L40.69 28.5455H25.3293L31.3135 0.435083H46.6742L46.0643 3.29377H32.4951Z" fill="#41197F"/>
<path d="M69.03 18.7688C68.7886 19.8995 68.3439 21.0621 67.6959 22.2564C67.0607 23.438 66.2221 24.537 65.1803 25.5534C64.1512 26.5571 62.9442 27.3702 61.5593 27.9928C60.1744 28.6154 58.618 28.9266 56.8901 28.9266C54.8954 28.9266 53.2564 28.4883 51.9732 27.6116C50.7027 26.735 49.7625 25.5343 49.1526 24.0097C48.5555 22.4724 48.2569 20.7254 48.2569 18.7688C48.2569 16.3929 48.5809 14.0932 49.2288 11.8698C49.8895 9.6464 50.8361 7.65167 52.0685 5.88564C53.3136 4.1069 54.8128 2.69662 56.5661 1.65479C58.3322 0.612957 60.3205 0.092041 62.5313 0.092041C64.5895 0.092041 66.2412 0.511315 67.4863 1.34986C68.7441 2.1757 69.6526 3.23024 70.2116 4.51347C70.7706 5.7967 71.0501 7.11805 71.0501 8.47751C71.0501 8.82056 71.0311 9.13819 70.993 9.43041C70.9548 9.72263 70.904 9.98309 70.8405 10.2118H67.5816C67.6197 10.0212 67.6578 9.7671 67.6959 9.44947C67.7468 9.11913 67.7722 8.81421 67.7722 8.53469C67.7722 7.51827 67.5689 6.59714 67.1623 5.77129C66.7685 4.94545 66.1586 4.28478 65.3328 3.78927C64.5069 3.29377 63.4524 3.04601 62.1692 3.04601C60.4539 3.04601 58.9357 3.5034 57.6143 4.41818C56.293 5.33296 55.1813 6.55267 54.2792 8.0773C53.3771 9.60193 52.6974 11.2981 52.24 13.1658C51.7826 15.0207 51.5539 16.8948 51.5539 18.7878C51.5539 21.1256 52.0177 22.9107 52.9451 24.1431C53.8726 25.3755 55.2956 25.9917 57.2141 25.9917C58.3449 25.9917 59.3867 25.7884 60.3396 25.3819C61.3052 24.9626 62.1564 24.4036 62.8934 23.7048C63.643 23.006 64.2592 22.231 64.742 21.3797C65.2375 20.5158 65.5805 19.6454 65.7711 18.7688H69.03Z" fill="#41197F"/>
<path d="M73.7992 28.5455L79.7644 0.435083H82.9851L77.0391 28.5455H73.7992Z" fill="#41197F"/>
<path d="M88.3184 28.5455H85.0595L91.0437 0.435083H98.743C100.662 0.435083 102.212 0.76542 103.393 1.42609C104.575 2.08677 105.439 2.97614 105.985 4.0942C106.544 5.19956 106.824 6.43197 106.824 7.79143C106.824 9.46852 106.544 10.9805 105.985 12.3272C105.426 13.6613 104.632 14.8111 103.603 15.7767C102.574 16.7296 101.348 17.4601 99.9246 17.9683C98.5144 18.4766 96.9516 18.7307 95.2364 18.7307H90.4147L88.3184 28.5455ZM90.6625 17.53L89.5571 15.872H95.2555C96.9453 15.872 98.4127 15.5353 99.6578 14.8619C100.903 14.1885 101.869 13.2483 102.555 12.0413C103.241 10.8343 103.584 9.42406 103.584 7.81049C103.584 6.84489 103.387 6.03175 102.993 5.37108C102.612 4.6977 102.002 4.18314 101.163 3.82739C100.338 3.47164 99.2576 3.29377 97.9236 3.29377H92.2252L94.0739 1.44515L90.6625 17.53Z" fill="#41197F"/>
<path d="M116.627 3.29377L118.475 1.44515L115.788 14.1377L115.217 13.0133H126.003L125.412 15.872H114.626L115.655 14.7476L112.949 27.5354L111.862 25.6868H125.432L124.822 28.5455H109.461L115.445 0.435083H130.806L130.196 3.29377H116.627Z" fill="#41197F"/>
<path d="M140.885 28.9266C139.272 28.9266 137.868 28.6979 136.674 28.2406C135.479 27.7705 134.558 27.0844 133.91 26.1823C133.262 25.2675 132.938 24.1368 132.938 22.79C132.938 22.1674 132.983 21.5957 133.072 21.0748C133.173 20.5539 133.307 19.9504 133.472 19.2643H136.712C136.547 19.925 136.426 20.484 136.35 20.9414C136.286 21.3988 136.254 21.8498 136.254 22.2945C136.254 23.6412 136.674 24.5941 137.512 25.1532C138.363 25.7122 139.596 25.9917 141.209 25.9917C142.582 25.9917 143.808 25.8075 144.888 25.439C145.967 25.0579 146.819 24.4798 147.441 23.7048C148.064 22.917 148.375 21.907 148.375 20.6746C148.375 19.4676 147.88 18.4766 146.889 17.7015C145.91 16.9265 144.576 16.2658 142.886 15.7195C141.603 15.2875 140.447 14.7539 139.418 14.1187C138.402 13.4707 137.595 12.6893 136.998 11.7745C136.413 10.8598 136.121 9.79886 136.121 8.59186C136.121 7.2324 136.381 6.0254 136.902 4.97086C137.436 3.91632 138.173 3.02696 139.113 2.30276C140.053 1.57856 141.146 1.03223 142.391 0.663777C143.636 0.28262 144.983 0.092041 146.431 0.092041C148.045 0.092041 149.442 0.320736 150.624 0.778126C151.818 1.22281 152.739 1.88348 153.387 2.76015C154.035 3.63681 154.359 4.72311 154.359 6.01905C154.359 6.57808 154.315 7.13711 154.226 7.69614C154.137 8.25517 154.023 8.83961 153.883 9.44947H150.624C150.764 8.86502 150.865 8.34411 150.929 7.88672C151.005 7.41662 151.043 6.95288 151.043 6.49549C151.043 5.19956 150.618 4.29748 149.766 3.78927C148.915 3.28106 147.689 3.02696 146.088 3.02696C144.792 3.02696 143.636 3.19848 142.62 3.54152C141.603 3.88456 140.803 4.42453 140.218 5.16144C139.634 5.88564 139.342 6.83218 139.342 8.00107C139.342 9.33512 139.863 10.3833 140.904 11.1456C141.946 11.8952 143.338 12.575 145.078 13.1848C146.438 13.6549 147.606 14.2076 148.585 14.8429C149.563 15.4781 150.313 16.2277 150.834 17.0917C151.367 17.9556 151.634 18.9657 151.634 20.1219C151.634 21.9896 151.158 23.5841 150.205 24.9054C149.265 26.2141 147.981 27.2114 146.355 27.8975C144.741 28.5836 142.918 28.9266 140.885 28.9266Z" fill="#41197F"/>
</svg>
